<svg width="494" height="609" viewBox="0 0 494 609" fill="none" xmlns="http://www.w3.org/2000/svg">
<path d="M28.1117 156.823C19.6252 81.9159 82.1051 19.1045 156.394 6.29228C238.868 -7.93145 344.125 1.90421 381.861 36.3611C440.891 90.2614 487.596 274.779 492.785 369.683C497.975 464.587 489.218 585.945 412.998 605.786C336.778 625.626 99.686 549.571 35.4668 488.726C-28.7524 427.882 10.4927 314.46 27.6827 240.719" fill="url(#paint0_radial_3_8)"/>
<path d="M246.5 239.75V369.25M278.875 277.521C278.875 262.628 264.382 250.542 246.5 250.542C228.618 250.542 214.125 262.628 214.125 277.521C214.125 292.413 228.618 304.5 246.5 304.5C264.382 304.5 278.875 316.587 278.875 331.479C278.875 346.372 264.382 358.458 246.5 358.458C228.618 358.458 214.125 346.372 214.125 331.479" stroke="white" stroke-width="10" stroke-linecap="round"/>
<path d="M192.542 211.023C208.939 201.534 227.555 196.552 246.5 196.583C306.102 196.583 354.417 244.898 354.417 304.5C354.417 364.102 306.102 412.417 246.5 412.417C186.898 412.417 138.583 364.102 138.583 304.5C138.583 284.848 143.839 266.405 153.023 250.542" stroke="white" stroke-width="10" stroke-linecap="round"/>
<defs>
<radialGradient id="paint0_radial_3_8" cx="0" cy="0" r="1" gradientUnits="userSpaceOnUse" gradientTransform="translate(247 307.879) scale(345.8 421.57)">
<stop stop-color="#383838"/>
<stop offset="1"/>
</radialGradient>
</defs>
</svg>
